<svg width="24" height="24" viewBox="0 0 24 24" fill="none" xmlns="http://www.w3.org/2000/svg">
<path fill-rule="evenodd" clip-rule="evenodd" d="M7.99998 9.50009C8.25598 9.50009 8.51198 9.59809 8.70698 9.79309L12.012 13.0981L15.305 9.91809C15.703 9.53409 16.335 9.54409 16.719 9.94309C17.103 10.3401 17.092 10.9741 16.695 11.3571L12.695 15.2191C12.302 15.5981 11.678 15.5931 11.293 15.2071L7.29298 11.2071C6.90198 10.8161 6.90198 10.1841 7.29298 9.79309C7.48798 9.59809 7.74398 9.50009 7.99998 9.50009Z" fill="#231F20"/>
<mask id="mask0" mask-type="alpha" maskUnits="userSpaceOnUse" x="6" y="9" width="11" height="7">
<path fill-rule="evenodd" clip-rule="evenodd" d="M7.99998 9.50009C8.25598 9.50009 8.51198 9.59809 8.70698 9.79309L12.012 13.0981L15.305 9.91809C15.703 9.53409 16.335 9.54409 16.719 9.94309C17.103 10.3401 17.092 10.9741 16.695 11.3571L12.695 15.2191C12.302 15.5981 11.678 15.5931 11.293 15.2071L7.29298 11.2071C6.90198 10.8161 6.90198 10.1841 7.29298 9.79309C7.48798 9.59809 7.74398 9.50009 7.99998 9.50009Z" fill="white"/>
</mask>
<g mask="url(#mask0)">
<rect x="24" y="24" width="24" height="24" transform="rotate(-180 24 24)" fill="#010101"/>
</g>
</svg>
