<svg width="73" height="24" viewBox="0 0 73 24" fill="none" xmlns="http://www.w3.org/2000/svg">
<path d="M5.61622 4.83476V10.6649H13.4846V14.7887H5.61622V23.7472H0.244263V0.726794H15.0645V4.83476H5.61622Z" fill="#FF4C00"/>
<path d="M5.61622 4.83476V10.6649H13.4846V14.7887H5.61622V23.7472H0.244263V0.726794H15.0645V4.83476H5.61622Z" fill="url(#paint0_linear)"/>
<path d="M23.8814 17.0797C22.9018 17.1218 22.096 17.2061 21.464 17.3325C20.832 17.4589 20.3317 17.6169 19.963 17.8065C19.5943 17.996 19.3363 18.212 19.1888 18.4542C19.0519 18.6965 18.9834 18.9598 18.9834 19.2442C18.9834 19.8025 19.1361 20.1975 19.4416 20.4292C19.7471 20.6504 20.1947 20.761 20.7846 20.761C21.4166 20.761 21.9696 20.6504 22.4436 20.4292C22.9176 20.208 23.3968 19.8499 23.8814 19.3548V17.0797ZM15.065 9.63792C16.0552 8.76366 17.1506 8.11586 18.3514 7.69454C19.5627 7.26267 20.8583 7.04674 22.2382 7.04674C23.2283 7.04674 24.1184 7.21001 24.9083 7.53654C25.7089 7.85253 26.383 8.3002 26.9307 8.87953C27.489 9.44832 27.9156 10.1277 28.2105 10.9177C28.5055 11.7077 28.6529 12.5714 28.6529 13.5089V23.7472H26.4093C25.9459 23.7472 25.593 23.684 25.3507 23.5576C25.119 23.4312 24.9241 23.1679 24.7661 22.7676L24.4186 21.867C24.0078 22.2146 23.6128 22.5201 23.2336 22.7834C22.8544 23.0467 22.4594 23.2732 22.0486 23.4628C21.6483 23.6419 21.2164 23.7735 20.753 23.8578C20.3001 23.9526 19.7945 24 19.2362 24C18.4883 24 17.8089 23.9052 17.198 23.7156C16.5871 23.5155 16.0657 23.2258 15.6338 22.8466C15.2125 22.4674 14.886 21.9987 14.6542 21.4404C14.4225 20.8716 14.3066 20.2186 14.3066 19.4812C14.3066 18.8914 14.4541 18.2962 14.749 17.6959C15.044 17.0849 15.5548 16.5319 16.2816 16.0369C17.0084 15.5313 17.988 15.1099 19.2204 14.7729C20.4528 14.4358 22.0064 14.2462 23.8814 14.2041V13.5089C23.8814 12.5504 23.6812 11.8604 23.281 11.4391C22.8912 11.0072 22.333 10.7913 21.6062 10.7913C21.0268 10.7913 20.5529 10.8545 20.1842 10.9809C19.8155 11.1073 19.4837 11.2495 19.1888 11.4075C18.9044 11.5655 18.6253 11.7077 18.3514 11.8341C18.0775 11.9605 17.751 12.0237 17.3718 12.0237C17.0347 12.0237 16.7504 11.9394 16.5186 11.7709C16.2869 11.6024 16.0973 11.4022 15.9498 11.1705L15.065 9.63792Z" fill="#FF4C00"/>
<path d="M23.8814 17.0797C22.9018 17.1218 22.096 17.2061 21.464 17.3325C20.832 17.4589 20.3317 17.6169 19.963 17.8065C19.5943 17.996 19.3363 18.212 19.1888 18.4542C19.0519 18.6965 18.9834 18.9598 18.9834 19.2442C18.9834 19.8025 19.1361 20.1975 19.4416 20.4292C19.7471 20.6504 20.1947 20.761 20.7846 20.761C21.4166 20.761 21.9696 20.6504 22.4436 20.4292C22.9176 20.208 23.3968 19.8499 23.8814 19.3548V17.0797ZM15.065 9.63792C16.0552 8.76366 17.1506 8.11586 18.3514 7.69454C19.5627 7.26267 20.8583 7.04674 22.2382 7.04674C23.2283 7.04674 24.1184 7.21001 24.9083 7.53654C25.7089 7.85253 26.383 8.3002 26.9307 8.87953C27.489 9.44832 27.9156 10.1277 28.2105 10.9177C28.5055 11.7077 28.6529 12.5714 28.6529 13.5089V23.7472H26.4093C25.9459 23.7472 25.593 23.684 25.3507 23.5576C25.119 23.4312 24.9241 23.1679 24.7661 22.7676L24.4186 21.867C24.0078 22.2146 23.6128 22.5201 23.2336 22.7834C22.8544 23.0467 22.4594 23.2732 22.0486 23.4628C21.6483 23.6419 21.2164 23.7735 20.753 23.8578C20.3001 23.9526 19.7945 24 19.2362 24C18.4883 24 17.8089 23.9052 17.198 23.7156C16.5871 23.5155 16.0657 23.2258 15.6338 22.8466C15.2125 22.4674 14.886 21.9987 14.6542 21.4404C14.4225 20.8716 14.3066 20.2186 14.3066 19.4812C14.3066 18.8914 14.4541 18.2962 14.749 17.6959C15.044 17.0849 15.5548 16.5319 16.2816 16.0369C17.0084 15.5313 17.988 15.1099 19.2204 14.7729C20.4528 14.4358 22.0064 14.2462 23.8814 14.2041V13.5089C23.8814 12.5504 23.6812 11.8604 23.281 11.4391C22.8912 11.0072 22.333 10.7913 21.6062 10.7913C21.0268 10.7913 20.5529 10.8545 20.1842 10.9809C19.8155 11.1073 19.4837 11.2495 19.1888 11.4075C18.9044 11.5655 18.6253 11.7077 18.3514 11.8341C18.0775 11.9605 17.751 12.0237 17.3718 12.0237C17.0347 12.0237 16.7504 11.9394 16.5186 11.7709C16.2869 11.6024 16.0973 11.4022 15.9498 11.1705L15.065 9.63792Z" fill="url(#paint1_linear)"/>
<path d="M36.1939 9.13232C36.5099 8.83739 36.8364 8.56353 37.1735 8.31073C37.5106 8.05793 37.8687 7.84727 38.2479 7.67873C38.6376 7.49967 39.0537 7.36274 39.4961 7.26794C39.949 7.16261 40.4388 7.10994 40.9655 7.10994C41.8608 7.10994 42.6508 7.26794 43.3354 7.58394C44.0306 7.8894 44.6152 8.32126 45.0892 8.87953C45.5632 9.42725 45.9214 10.0856 46.1636 10.8545C46.4059 11.6129 46.527 12.4398 46.527 13.3351V23.7472H41.6291V13.3351C41.6291 12.5346 41.4447 11.9131 41.0761 11.4707C40.7074 11.0178 40.1649 10.7913 39.4487 10.7913C38.9115 10.7913 38.4059 10.9072 37.9319 11.1389C37.4684 11.3601 37.0155 11.6656 36.5731 12.0553V23.7472H31.6751V7.36274H34.7087C35.3196 7.36274 35.7199 7.6366 35.9095 8.18433L36.1939 9.13232Z" fill="#FF4C00"/>
<path d="M36.1939 9.13232C36.5099 8.83739 36.8364 8.56353 37.1735 8.31073C37.5106 8.05793 37.8687 7.84727 38.2479 7.67873C38.6376 7.49967 39.0537 7.36274 39.4961 7.26794C39.949 7.16261 40.4388 7.10994 40.9655 7.10994C41.8608 7.10994 42.6508 7.26794 43.3354 7.58394C44.0306 7.8894 44.6152 8.32126 45.0892 8.87953C45.5632 9.42725 45.9214 10.0856 46.1636 10.8545C46.4059 11.6129 46.527 12.4398 46.527 13.3351V23.7472H41.6291V13.3351C41.6291 12.5346 41.4447 11.9131 41.0761 11.4707C40.7074 11.0178 40.1649 10.7913 39.4487 10.7913C38.9115 10.7913 38.4059 10.9072 37.9319 11.1389C37.4684 11.3601 37.0155 11.6656 36.5731 12.0553V23.7472H31.6751V7.36274H34.7087C35.3196 7.36274 35.7199 7.6366 35.9095 8.18433L36.1939 9.13232Z" fill="url(#paint2_linear)"/>
<path d="M54.4862 0.094798V13.3509H55.213C55.5185 13.3509 55.7502 13.3088 55.9082 13.2245C56.0662 13.1297 56.2242 12.977 56.3822 12.7663L59.479 8.15273C59.6686 7.8894 59.8845 7.69453 60.1267 7.56814C60.369 7.4312 60.6797 7.36274 61.0589 7.36274H65.5461L61.3117 13.1929C60.9115 13.7196 60.4375 14.1514 59.8898 14.4885C60.132 14.6675 60.3532 14.8782 60.5533 15.1205C60.7535 15.3522 60.9431 15.6155 61.1221 15.9105L65.7357 23.7472H61.3117C60.9431 23.7472 60.6271 23.6893 60.3637 23.5734C60.1004 23.447 59.8792 23.2311 59.7002 22.9256L56.6034 17.1271C56.4559 16.8637 56.3032 16.6952 56.1452 16.6215C55.9872 16.5372 55.7502 16.4951 55.4342 16.4951H54.4862V23.7472H49.5882V0.094798H54.4862Z" fill="#FF4C00"/>
<path d="M54.4862 0.094798V13.3509H55.213C55.5185 13.3509 55.7502 13.3088 55.9082 13.2245C56.0662 13.1297 56.2242 12.977 56.3822 12.7663L59.479 8.15273C59.6686 7.8894 59.8845 7.69453 60.1267 7.56814C60.369 7.4312 60.6797 7.36274 61.0589 7.36274H65.5461L61.3117 13.1929C60.9115 13.7196 60.4375 14.1514 59.8898 14.4885C60.132 14.6675 60.3532 14.8782 60.5533 15.1205C60.7535 15.3522 60.9431 15.6155 61.1221 15.9105L65.7357 23.7472H61.3117C60.9431 23.7472 60.6271 23.6893 60.3637 23.5734C60.1004 23.447 59.8792 23.2311 59.7002 22.9256L56.6034 17.1271C56.4559 16.8637 56.3032 16.6952 56.1452 16.6215C55.9872 16.5372 55.7502 16.4951 55.4342 16.4951H54.4862V23.7472H49.5882V0.094798H54.4862Z" fill="url(#paint3_linear)"/>
<path d="M72.1396 7.36274V23.7472H67.2416V7.36274H72.1396ZM72.6452 2.87557C72.6452 3.26531 72.5662 3.63397 72.4082 3.98157C72.2502 4.31863 72.0342 4.61883 71.7604 4.88216C71.4865 5.13496 71.1653 5.34035 70.7966 5.49835C70.4385 5.64582 70.054 5.71955 69.6432 5.71955C69.2429 5.71955 68.869 5.64582 68.5214 5.49835C68.1738 5.34035 67.8631 5.13496 67.5892 4.88216C67.3259 4.61883 67.1152 4.31863 66.9572 3.98157C66.8098 3.63397 66.736 3.26531 66.736 2.87557C66.736 2.47531 66.8098 2.10138 66.9572 1.75378C67.1152 1.40619 67.3259 1.10072 67.5892 0.837393C67.8631 0.574062 68.1738 0.368663 68.5214 0.221197C68.869 0.0737324 69.2429 0 69.6432 0C70.054 0 70.4385 0.0737324 70.7966 0.221197C71.1653 0.368663 71.4865 0.574062 71.7604 0.837393C72.0342 1.10072 72.2502 1.40619 72.4082 1.75378C72.5662 2.10138 72.6452 2.47531 72.6452 2.87557Z" fill="#FF4C00"/>
<path d="M72.1396 7.36274V23.7472H67.2416V7.36274H72.1396ZM72.6452 2.87557C72.6452 3.26531 72.5662 3.63397 72.4082 3.98157C72.2502 4.31863 72.0342 4.61883 71.7604 4.88216C71.4865 5.13496 71.1653 5.34035 70.7966 5.49835C70.4385 5.64582 70.054 5.71955 69.6432 5.71955C69.2429 5.71955 68.869 5.64582 68.5214 5.49835C68.1738 5.34035 67.8631 5.13496 67.5892 4.88216C67.3259 4.61883 67.1152 4.31863 66.9572 3.98157C66.8098 3.63397 66.736 3.26531 66.736 2.87557C66.736 2.47531 66.8098 2.10138 66.9572 1.75378C67.1152 1.40619 67.3259 1.10072 67.5892 0.837393C67.8631 0.574062 68.1738 0.368663 68.5214 0.221197C68.869 0.0737324 69.2429 0 69.6432 0C70.054 0 70.4385 0.0737324 70.7966 0.221197C71.1653 0.368663 71.4865 0.574062 71.7604 0.837393C72.0342 1.10072 72.2502 1.40619 72.4082 1.75378C72.5662 2.10138 72.6452 2.47531 72.6452 2.87557Z" fill="url(#paint4_linear)"/>
<defs>
<linearGradient id="paint0_linear" x1="72.6452" y1="-4.3497e-06" x2="-1.16758" y2="18.3078" gradientUnits="userSpaceOnUse">
<stop stop-color="white" stop-opacity="0.5"/>
<stop offset="1" stop-color="white" stop-opacity="0"/>
</linearGradient>
<linearGradient id="paint1_linear" x1="72.6452" y1="-4.3497e-06" x2="-1.16758" y2="18.3078" gradientUnits="userSpaceOnUse">
<stop stop-color="white" stop-opacity="0.5"/>
<stop offset="1" stop-color="white" stop-opacity="0"/>
</linearGradient>
<linearGradient id="paint2_linear" x1="72.6452" y1="-4.3497e-06" x2="-1.16758" y2="18.3078" gradientUnits="userSpaceOnUse">
<stop stop-color="white" stop-opacity="0.5"/>
<stop offset="1" stop-color="white" stop-opacity="0"/>
</linearGradient>
<linearGradient id="paint3_linear" x1="72.6452" y1="-4.3497e-06" x2="-1.16758" y2="18.3078" gradientUnits="userSpaceOnUse">
<stop stop-color="white" stop-opacity="0.5"/>
<stop offset="1" stop-color="white" stop-opacity="0"/>
</linearGradient>
<linearGradient id="paint4_linear" x1="72.6452" y1="-4.3497e-06" x2="-1.16758" y2="18.3078" gradientUnits="userSpaceOnUse">
<stop stop-color="white" stop-opacity="0.5"/>
<stop offset="1" stop-color="white" stop-opacity="0"/>
</linearGradient>
</defs>
</svg>
