<svg width="24" height="24" viewBox="0 0 24 24" fill="none" xmlns="http://www.w3.org/2000/svg">
<path d="M0.5 4.54606C0.5 2.70129 1.99548 1.20581 3.84025 1.20581H19.2012C21.046 1.20581 22.5415 2.70129 22.5415 4.54606V19.907C22.5415 21.7518 21.046 23.2473 19.2012 23.2473H3.84025C1.99548 23.2473 0.5 21.7518 0.5 19.907V4.54606Z" fill="#FF4C00" stroke="white"/>
<path d="M0 4.54606C0 2.42515 1.71934 0.705811 3.84025 0.705811H17.2811C17.2811 10.2499 9.54409 17.9869 0 17.9869V4.54606Z" fill="white" fill-opacity="0.7"/>
<path opacity="0.53" d="M21.1214 19.9069C21.1214 20.9674 20.2617 21.827 19.2012 21.827L5.76038 21.827C5.76038 13.3434 12.6377 6.46606 21.1214 6.46606L21.1214 19.9069Z" fill="white"/>
</svg>
