<svg width="18" height="18" viewBox="0 0 18 18" fill="none" xmlns="http://www.w3.org/2000/svg">
<path fill-rule="evenodd" clip-rule="evenodd" d="M5.25015 8.24939C5.25015 7.83539 5.58615 7.49939 6.00015 7.49939C6.41415 7.49939 6.75015 7.83539 6.75015 8.24939C6.75015 8.66339 6.41415 8.99939 6.00015 8.99939C5.58615 8.99939 5.25015 8.66339 5.25015 8.24939ZM9.00015 7.49939C8.58615 7.49939 8.25015 7.83539 8.25015 8.24939C8.25015 8.66339 8.58615 8.99939 9.00015 8.99939C9.41415 8.99939 9.75015 8.66339 9.75015 8.24939C9.75015 7.83539 9.41415 7.49939 9.00015 7.49939ZM12.0002 7.49939C11.5862 7.49939 11.2502 7.83539 11.2502 8.24939C11.2502 8.66339 11.5862 8.99939 12.0002 8.99939C12.4142 8.99939 12.7502 8.66339 12.7502 8.24939C12.7502 7.83539 12.4142 7.49939 12.0002 7.49939ZM14.9239 9.22058C14.5437 11.6611 12.5764 13.6853 10.1397 14.1421C8.96295 14.3641 7.76445 14.2373 6.67695 13.7768C6.3687 13.6463 6.04995 13.5803 5.7372 13.5803C5.5947 13.5803 5.4537 13.5938 5.31495 13.6216L3.20595 14.0431L3.6282 11.9303C3.7167 11.4916 3.6627 11.0221 3.47295 10.5728C3.01245 9.48533 2.88645 8.28758 3.1077 7.11008C3.56445 4.67333 5.58795 2.70608 8.0292 2.32583C9.9717 2.02358 11.8714 2.63558 13.2424 4.00658C14.6142 5.37833 15.2269 7.27883 14.9239 9.22058ZM14.3037 2.94613C12.5899 1.23313 10.22 0.468878 7.7982 0.843128C4.74045 1.32013 2.20545 3.78313 1.6332 6.83338C1.3572 8.30188 1.5162 9.79738 2.09145 11.1571C2.1642 11.3304 2.1867 11.4916 2.1582 11.6364L1.5147 14.8524C1.4652 15.0984 1.54245 15.3526 1.7202 15.5296C1.86195 15.6721 2.0532 15.7494 2.25045 15.7494C2.2992 15.7494 2.34795 15.7449 2.39745 15.7351L5.6097 15.0924C5.7942 15.0571 5.9727 15.1089 6.09195 15.1584C7.4532 15.7336 8.9487 15.8919 10.4157 15.6166C13.4667 15.0444 15.9297 12.5094 16.4067 9.45163C16.7832 7.03138 16.0175 4.65988 14.3037 2.94613Z" fill="#616061"/>
<mask id="mask0" mask-type="alpha" maskUnits="userSpaceOnUse" x="1" y="0" width="16" height="16">
<path fill-rule="evenodd" clip-rule="evenodd" d="M5.25015 8.24939C5.25015 7.83539 5.58615 7.49939 6.00015 7.49939C6.41415 7.49939 6.75015 7.83539 6.75015 8.24939C6.75015 8.66339 6.41415 8.99939 6.00015 8.99939C5.58615 8.99939 5.25015 8.66339 5.25015 8.24939ZM9.00015 7.49939C8.58615 7.49939 8.25015 7.83539 8.25015 8.24939C8.25015 8.66339 8.58615 8.99939 9.00015 8.99939C9.41415 8.99939 9.75015 8.66339 9.75015 8.24939C9.75015 7.83539 9.41415 7.49939 9.00015 7.49939ZM12.0002 7.49939C11.5862 7.49939 11.2502 7.83539 11.2502 8.24939C11.2502 8.66339 11.5862 8.99939 12.0002 8.99939C12.4142 8.99939 12.7502 8.66339 12.7502 8.24939C12.7502 7.83539 12.4142 7.49939 12.0002 7.49939ZM14.9239 9.22058C14.5437 11.6611 12.5764 13.6853 10.1397 14.1421C8.96295 14.3641 7.76445 14.2373 6.67695 13.7768C6.3687 13.6463 6.04995 13.5803 5.7372 13.5803C5.5947 13.5803 5.4537 13.5938 5.31495 13.6216L3.20595 14.0431L3.6282 11.9303C3.7167 11.4916 3.6627 11.0221 3.47295 10.5728C3.01245 9.48533 2.88645 8.28758 3.1077 7.11008C3.56445 4.67333 5.58795 2.70608 8.0292 2.32583C9.9717 2.02358 11.8714 2.63558 13.2424 4.00658C14.6142 5.37833 15.2269 7.27883 14.9239 9.22058ZM14.3037 2.94613C12.5899 1.23313 10.22 0.468878 7.7982 0.843128C4.74045 1.32013 2.20545 3.78313 1.6332 6.83338C1.3572 8.30188 1.5162 9.79738 2.09145 11.1571C2.1642 11.3304 2.1867 11.4916 2.1582 11.6364L1.5147 14.8524C1.4652 15.0984 1.54245 15.3526 1.7202 15.5296C1.86195 15.6721 2.0532 15.7494 2.25045 15.7494C2.2992 15.7494 2.34795 15.7449 2.39745 15.7351L5.6097 15.0924C5.7942 15.0571 5.9727 15.1089 6.09195 15.1584C7.4532 15.7336 8.9487 15.8919 10.4157 15.6166C13.4667 15.0444 15.9297 12.5094 16.4067 9.45163C16.7832 7.03138 16.0175 4.65988 14.3037 2.94613Z" fill="white"/>
</mask>
<g mask="url(#mask0)">
<rect width="18" height="18" fill="#616061"/>
</g>
</svg>
