<svg width="24" height="24" viewBox="0 0 24 24" fill="none" xmlns="http://www.w3.org/2000/svg">
<path fill-rule="evenodd" clip-rule="evenodd" d="M2.94793 2.01C2.85493 2.015 2.76493 2.032 2.67793 2.063C2.64693 2.073 2.61693 2.084 2.58693 2.098C2.47993 2.146 2.37893 2.207 2.29293 2.293C2.20693 2.379 2.14593 2.48 2.09793 2.588C2.08393 2.617 2.07293 2.646 2.06293 2.677C2.03193 2.766 2.01393 2.857 2.00893 2.952C2.00793 2.974 2.00293 2.994 2.00293 3.017C2.00493 3.117 2.01893 3.218 2.05093 3.316L8.05093 21.316C8.18793 21.725 8.56893 22 8.99993 22C9.43093 22 9.81293 21.725 9.94893 21.316L12.7909 12.791L21.3169 9.948C21.7249 9.812 21.9999 9.431 21.9999 9C21.9999 8.569 21.7249 8.188 21.3169 8.052L3.31693 2.052C3.21793 2.02 3.11793 2.005 3.01793 2.004C2.99393 2.003 2.97193 2.009 2.94793 2.01Z" fill="#010101"/>
<mask id="mask0" mask-type="alpha" maskUnits="userSpaceOnUse" x="2" y="2" width="20" height="20">
<path fill-rule="evenodd" clip-rule="evenodd" d="M17.8379 9L12.2709 10.856L6.70193 5.288L17.8379 9ZM5.28793 6.702L10.8559 12.27L8.99993 17.838L5.28793 6.702ZM2.94793 2.01C2.85493 2.015 2.76493 2.032 2.67793 2.063C2.64693 2.073 2.61693 2.084 2.58693 2.098C2.47993 2.146 2.37893 2.207 2.29293 2.293C2.20693 2.379 2.14593 2.48 2.09793 2.588C2.08393 2.617 2.07293 2.646 2.06293 2.677C2.03193 2.766 2.01393 2.857 2.00893 2.952C2.00793 2.974 2.00293 2.994 2.00293 3.017C2.00493 3.117 2.01893 3.218 2.05093 3.316L8.05093 21.316C8.18793 21.725 8.56893 22 8.99993 22C9.43093 22 9.81293 21.725 9.94893 21.316L12.7909 12.791L21.3169 9.948C21.7249 9.812 21.9999 9.431 21.9999 9C21.9999 8.569 21.7249 8.188 21.3169 8.052L3.31693 2.052C3.21793 2.02 3.11793 2.005 3.01793 2.004C2.99393 2.003 2.97193 2.009 2.94793 2.01Z" fill="white"/>
</mask>
<g mask="url(#mask0)">
<rect y="24" width="24" height="24" transform="rotate(-90 0 24)" fill="#010101"/>
</g>
</svg>
