<svg width="18" height="18" viewBox="0 0 18 18" fill="none" xmlns="http://www.w3.org/2000/svg">
<g opacity="0.5">
<path fill-rule="evenodd" clip-rule="evenodd" d="M6.375 7.125C6.375 5.6775 7.5525 4.5 9 4.5C10.4475 4.5 11.625 5.6775 11.625 7.125C11.625 8.31 10.83 9.30225 9.75 9.62775V10.5C9.75 10.9148 9.41475 11.25 9 11.25C8.58525 11.25 8.25 10.9148 8.25 10.5V9C8.25 8.58525 8.58525 8.25 9 8.25C9.62025 8.25 10.125 7.74525 10.125 7.125C10.125 6.50475 9.62025 6 9 6C8.37975 6 7.875 6.50475 7.875 7.125C7.875 7.53975 7.53975 7.875 7.125 7.875C6.71025 7.875 6.375 7.53975 6.375 7.125ZM8.25 12.75C8.25 12.3352 8.58525 12 9 12C9.41475 12 9.75 12.3352 9.75 12.75C9.75 13.1648 9.41475 13.5 9 13.5C8.58525 13.5 8.25 13.1648 8.25 12.75ZM9 15C5.69175 15 3 12.3082 3 9C3 5.69175 5.69175 3 9 3C12.3082 3 15 5.69175 15 9C15 12.3082 12.3082 15 9 15ZM9 1.5C4.8645 1.5 1.5 4.8645 1.5 9C1.5 13.1355 4.8645 16.5 9 16.5C13.1355 16.5 16.5 13.1355 16.5 9C16.5 4.8645 13.1355 1.5 9 1.5Z" fill="white"/>
<mask id="mask0" mask-type="alpha" maskUnits="userSpaceOnUse" x="1" y="1" width="16" height="16">
<path fill-rule="evenodd" clip-rule="evenodd" d="M6.375 7.125C6.375 5.6775 7.5525 4.5 9 4.5C10.4475 4.5 11.625 5.6775 11.625 7.125C11.625 8.31 10.83 9.30225 9.75 9.62775V10.5C9.75 10.9148 9.41475 11.25 9 11.25C8.58525 11.25 8.25 10.9148 8.25 10.5V9C8.25 8.58525 8.58525 8.25 9 8.25C9.62025 8.25 10.125 7.74525 10.125 7.125C10.125 6.50475 9.62025 6 9 6C8.37975 6 7.875 6.50475 7.875 7.125C7.875 7.53975 7.53975 7.875 7.125 7.875C6.71025 7.875 6.375 7.53975 6.375 7.125ZM8.25 12.75C8.25 12.3352 8.58525 12 9 12C9.41475 12 9.75 12.3352 9.75 12.75C9.75 13.1648 9.41475 13.5 9 13.5C8.58525 13.5 8.25 13.1648 8.25 12.75ZM9 15C5.69175 15 3 12.3082 3 9C3 5.69175 5.69175 3 9 3C12.3082 3 15 5.69175 15 9C15 12.3082 12.3082 15 9 15ZM9 1.5C4.8645 1.5 1.5 4.8645 1.5 9C1.5 13.1355 4.8645 16.5 9 16.5C13.1355 16.5 16.5 13.1355 16.5 9C16.5 4.8645 13.1355 1.5 9 1.5Z" fill="white"/>
</mask>
<g mask="url(#mask0)">
<rect width="18" height="18" fill="white"/>
</g>
</g>
</svg>
