<svg width="24" height="24" viewBox="0 0 24 24" fill="none" xmlns="http://www.w3.org/2000/svg">
<path d="M21 12C21.5523 12 22.0052 12.4488 21.95 12.9984C21.787 14.6234 21.2277 16.1893 20.3147 17.5557C19.2159 19.2002 17.6541 20.4819 15.8268 21.2388C13.9996 21.9957 11.9889 22.1937 10.0491 21.8079C8.10929 21.422 6.32746 20.4696 4.92893 19.0711C3.53041 17.6725 2.578 15.8907 2.19215 13.9509C1.80629 12.0111 2.00433 10.0004 2.7612 8.17317C3.51808 6.3459 4.79981 4.78412 6.4443 3.6853C7.8107 2.7723 9.37656 2.213 11.0016 2.04995C11.5512 1.99482 12 2.44772 12 3C12 3.55228 11.5506 3.99356 11.0026 4.06242C9.77376 4.21683 8.59275 4.65513 7.55544 5.34824C6.23984 6.22729 5.21446 7.47672 4.60896 8.93853C4.00346 10.4003 3.84504 12.0089 4.15372 13.5607C4.4624 15.1126 5.22433 16.538 6.34315 17.6569C7.46197 18.7757 8.88743 19.5376 10.4393 19.8463C11.9911 20.155 13.5997 19.9965 15.0615 19.391C16.5233 18.7855 17.7727 17.7602 18.6518 16.4446C19.3449 15.4072 19.7832 14.2262 19.9376 12.9974C20.0064 12.4494 20.4477 12 21 12Z" fill="#959595"/>
<circle cx="8.5" cy="9.5" r="1.5" fill="#959595"/>
<circle cx="15.5" cy="9.5" r="1.5" fill="#959595"/>
<path d="M17 13C17 14.3261 16.4732 15.5979 15.5355 16.5355C14.5979 17.4732 13.3261 18 12 18C10.6739 18 9.40215 17.4732 8.46447 16.5355C7.52678 15.5979 7 14.3261 7 13L12 13H17Z" fill="#959595"/>
<rect x="18" y="1" width="2" height="8" rx="1" fill="#959595"/>
<rect x="23" y="4" width="2" height="8" rx="1" transform="rotate(90 23 4)" fill="#959595"/>
</svg>
